# xmcd CD database file
#
# Track frame offsets:
#	150
#	23918
#	51900
#	94014
#	123563
#	170411
#	212106
#	260265
#	293713
#
# Disc length: 4422 seconds
#
# Revision: 0
# Processed by: cddbd v1.5.1PL0 Copyright (c) Steve Scherf et al.
# Submitted via: CDex 1.51
#
DISCID=7e114409
DTITLE=Various Artist - The All-Stars at Bob Haggart's 80th Birthday Party, CD 2
DYEAR=2002
DGENRE=Jazz
TTITLE0=Dan Barrett, Ken Peplowski - Old Man Time
TTITLE1=Yank Lawson, Joe Wilder - Oh, Baby
TTITLE2=Kenny Davern, Bob Wilber, Ken Peplowski - The Mooche
TTITLE3=Howard Alden, Bucky Pizzarelli, George Van Eps - Lullaby Of Birdland
TTITLE4=Ken Peplowski - Lover
TTITLE5=Yank Lawson, Bob Haggart - Three Little Words
TTITLE6=Randy Sandke - Wolverine Blues
TTITLE7=Walt Levinsky - Air Mail Special
TTITLE8=Joe Wilder - Bill Bailey, Won't You Please Come Home
EXTD=YEAR: 2002
EXTT0=
EXTT1=
EXTT2=
EXTT3=
EXTT4=
EXTT5=
EXTT6=
EXTT7=
EXTT8=
PLAYORDER=
